<svg xmlns="http://www.w3.org/2000/svg" viewBox="0 0 600 200" width="600" height="200">
  <rect width="600" height="200" fill="#0A0A1A"/>
  <defs>
    <linearGradient id="glow" x1="0%" y1="0%" x2="100%" y2="100%">
      <stop offset="0%" stop-color="#77DD77"/>
      <stop offset="100%" stop-color="#5ABF5A"/>
    </linearGradient>
  </defs>
  <g transform="translate(85, 100)">
    <polygon points="0,-52 45,-26 45,26 0,52 -45,26 -45,-26" fill="none" stroke="url(#glow)" stroke-width="2.5" opacity="0.85"/>
    <polygon points="0,-38 33,-19 33,19 0,38 -33,19 -33,-19" fill="none" stroke="#77DD77" stroke-width="1" opacity="0.3"/>
    <line x1="0" y1="-20" x2="0" y2="22" stroke="#77DD77" stroke-width="2.5" stroke-linecap="round"/>
    <line x1="-24" y1="-12" x2="24" y2="-12" stroke="#77DD77" stroke-width="2" stroke-linecap="round"/>
    <path d="M-24,-12 L-30,-2 L-18,-2 Z" fill="none" stroke="#77DD77" stroke-width="1.5" stroke-linejoin="round"/>
    <path d="M24,-12 L18,-2 L30,-2 Z" fill="none" stroke="#77DD77" stroke-width="1.5" stroke-linejoin="round"/>
    <path d="M-10,22 L0,16 L10,22" fill="none" stroke="#77DD77" stroke-width="2" stroke-linecap="round" stroke-linejoin="round"/>
    <circle cx="-24" cy="-12" r="2.5" fill="#77DD77"/>
    <circle cx="24" cy="-12" r="2.5" fill="#77DD77"/>
    <circle cx="0" cy="-20" r="2.5" fill="#77DD77"/>
    <circle cx="0" cy="-52" r="2" fill="#99EE99" opacity="0.5"/>
    <circle cx="45" cy="-26" r="2" fill="#99EE99" opacity="0.5"/>
    <circle cx="45" cy="26" r="2" fill="#99EE99" opacity="0.5"/>
    <circle cx="0" cy="52" r="2" fill="#99EE99" opacity="0.5"/>
    <circle cx="-45" cy="26" r="2" fill="#99EE99" opacity="0.5"/>
    <circle cx="-45" cy="-26" r="2" fill="#99EE99" opacity="0.5"/>
  </g>
  <text x="160" y="112" font-family="'Inter','Helvetica Neue',Arial,sans-serif" font-size="56" font-weight="700" letter-spacing="6" fill="#FFFFFF">YARUKSA<tspan fill="#77DD77">İ</tspan></text>
  <text x="162" y="140" font-family="'Inter','Helvetica Neue',Arial,sans-serif" font-size="12" font-weight="400" letter-spacing="4" fill="#AAAAAA">LIGHT FOR AI · PROOF FOR HUMANS</text>
</svg>
