<svg xmlns="http://www.w3.org/2000/svg" viewBox="0 0 120 120" width="120" height="120">
  <defs>
    <linearGradient id="glow" x1="0%" y1="0%" x2="100%" y2="100%">
      <stop offset="0%" stop-color="#77DD77"/>
      <stop offset="100%" stop-color="#5ABF5A"/>
    </linearGradient>
  </defs>
  <g transform="translate(60, 60)">
    <polygon points="0,-48 42,-24 42,24 0,48 -42,24 -42,-24" fill="none" stroke="url(#glow)" stroke-width="2.5" opacity="0.85"/>
    <polygon points="0,-35 30,-17.5 30,17.5 0,35 -30,17.5 -30,-17.5" fill="none" stroke="#77DD77" stroke-width="1" opacity="0.3"/>
    <line x1="0" y1="-18" x2="0" y2="20" stroke="#77DD77" stroke-width="2.5" stroke-linecap="round"/>
    <line x1="-22" y1="-10" x2="22" y2="-10" stroke="#77DD77" stroke-width="2" stroke-linecap="round"/>
    <path d="M-22,-10 L-28,-1 L-16,-1 Z" fill="none" stroke="#77DD77" stroke-width="1.5" stroke-linejoin="round"/>
    <path d="M22,-10 L16,-1 L28,-1 Z" fill="none" stroke="#77DD77" stroke-width="1.5" stroke-linejoin="round"/>
    <path d="M-9,20 L0,14 L9,20" fill="none" stroke="#77DD77" stroke-width="2" stroke-linecap="round" stroke-linejoin="round"/>
    <circle cx="-22" cy="-10" r="2.5" fill="#77DD77"/>
    <circle cx="22" cy="-10" r="2.5" fill="#77DD77"/>
    <circle cx="0" cy="-18" r="2.5" fill="#77DD77"/>
    <circle cx="0" cy="-48" r="2" fill="#99EE99" opacity="0.5"/>
    <circle cx="42" cy="-24" r="2" fill="#99EE99" opacity="0.5"/>
    <circle cx="42" cy="24" r="2" fill="#99EE99" opacity="0.5"/>
    <circle cx="0" cy="48" r="2" fill="#99EE99" opacity="0.5"/>
    <circle cx="-42" cy="24" r="2" fill="#99EE99" opacity="0.5"/>
    <circle cx="-42" cy="-24" r="2" fill="#99EE99" opacity="0.5"/>
  </g>
</svg>
